<!--Scalable Vector Graphic-->
<svg xmlns="http://www.w3.org/2000/svg" 
     xmlns:xlink="http://www.w3.org/1999/xlink"  
     width="960px" 
     height="560px" 
     viewBox="0 0 960px 560px">
	<path fill="#02366a" opacity="1.00" d=" M 494.45 782.93 C 520.65 783.03 546.85 782.89 573.05 783.00 C 579.21 782.89 585.90 785.09 589.25 790.60 C 593.28 796.99 591.74 804.86 592.03 812.00 C 591.72 817.95 593.00 824.29 590.57 829.93 C 588.53 834.18 583.36 835.19 579.09 834.88 C 585.52 847.57 590.45 861.08 598.23 873.05 C 584.96 873.01 571.68 873.08 558.40 873.00 C 553.08 860.25 547.87 847.46 542.56 834.71 C 539.14 834.77 535.72 834.75 532.31 834.72 C 532.22 842.83 532.21 850.93 532.29 859.04 C 532.34 863.94 533.56 868.81 536.03 873.07 C 522.12 873.01 508.20 873.03 494.29 873.06 C 496.63 869.13 498.04 864.66 497.96 860.07 C 497.97 838.72 497.97 817.37 497.96 796.02 C 498.07 791.41 496.72 786.91 494.45 782.93 M 532.25 798.08 C 532.26 805.31 532.23 812.54 532.26 819.77 C 539.80 819.45 547.45 820.40 554.92 819.15 C 558.01 818.76 557.80 815.31 557.95 812.99 C 557.94 809.01 558.24 804.98 557.54 801.06 C 557.40 798.92 554.90 798.17 553.12 798.09 C 546.17 797.93 539.21 798.05 532.25 798.08 Z" />
<path fill="#02366a" opacity="1.00" d=" M 602.52 782.95 C 616.34 782.93 630.16 783.05 643.98 782.89 C 641.07 787.74 640.21 793.43 640.25 799.02 C 640.26 818.69 640.22 838.37 640.27 858.05 C 640.28 863.28 641.29 868.57 644.13 873.05 C 630.17 873.03 616.22 873.02 602.27 873.06 C 604.34 869.38 605.97 865.34 605.93 861.05 C 606.00 839.36 605.92 817.68 605.97 795.99 C 606.10 791.40 604.69 786.94 602.52 782.95 Z" />
<path fill="#02366a" opacity="1.00" d=" M 652.98 782.94 C 679.37 783.07 705.76 782.80 732.15 783.08 C 732.94 788.73 733.93 794.35 734.75 799.99 C 731.58 799.01 728.37 797.99 725.03 798.05 C 713.70 798.01 702.38 798.03 691.06 798.06 C 691.01 805.23 691.03 812.40 691.06 819.57 C 704.43 818.79 718.20 821.14 731.27 817.43 C 731.24 823.81 731.20 830.19 731.30 836.57 C 728.35 835.35 725.23 834.40 722.01 834.50 C 711.69 834.50 701.38 834.51 691.06 834.49 C 691.02 842.30 691.03 850.12 691.06 857.94 C 701.73 857.95 712.41 858.03 723.08 857.93 C 727.91 857.88 732.50 856.25 737.01 854.70 C 736.05 860.78 734.96 866.84 734.02 872.93 C 706.97 873.22 679.92 872.89 652.87 873.09 C 655.64 868.57 656.71 863.29 656.74 858.05 C 656.78 838.69 656.73 819.34 656.76 799.98 C 656.83 794.11 656.26 787.98 652.98 782.94 Z" />
	<path fill="#b10f0a" opacity="1.00" d=" M 654.62 382.01 C 660.12 375.57 668.72 372.82 676.93 372.25 C 691.25 370.87 706.03 376.59 715.83 387.08 C 724.56 396.68 726.57 410.46 724.90 422.94 C 717.80 419.58 711.34 414.85 703.91 412.24 C 709.32 418.10 716.96 421.15 722.59 426.73 C 722.13 429.07 721.65 431.44 720.52 433.57 C 716.81 440.94 713.66 448.58 709.92 455.95 C 707.21 462.01 700.28 464.66 694.09 465.27 C 685.86 466.22 679.55 460.03 673.33 455.70 C 668.59 452.33 664.25 448.24 658.89 445.86 C 655.69 444.24 653.79 448.42 652.72 450.75 C 651.73 455.07 651.46 459.55 651.30 463.98 C 651.11 467.89 653.29 471.28 654.30 474.94 C 654.08 477.61 653.21 480.17 652.57 482.76 C 679.40 483.44 706.27 481.51 733.06 483.52 C 744.84 484.37 755.93 488.65 767.10 492.14 C 774.09 494.02 780.35 499.27 783.01 506.04 C 784.96 511.91 780.19 516.83 776.85 521.04 C 772.17 526.35 768.14 532.30 762.94 537.11 C 758.71 537.93 754.36 537.94 750.10 538.56 C 724.31 541.83 699.84 551.15 675.86 560.75 C 670.32 563.06 664.41 564.80 659.59 568.52 C 671.90 565.80 683.81 561.53 695.93 558.09 C 714.11 552.69 732.29 547.24 750.64 542.41 C 760.25 539.96 769.33 535.29 776.75 528.69 C 784.08 522.22 789.91 514.26 795.02 505.97 C 797.94 501.24 803.01 498.46 808.17 496.81 C 804.60 489.81 797.51 485.29 789.93 483.80 C 772.39 480.21 754.70 477.45 736.99 474.87 C 733.12 474.22 727.76 472.82 727.36 468.12 C 727.02 461.36 729.68 454.46 734.44 449.63 C 734.12 452.66 733.59 455.66 733.18 458.68 C 751.48 458.72 769.79 458.77 788.09 458.65 C 776.85 448.17 765.60 437.33 751.93 430.02 C 748.74 428.61 744.80 429.94 742.81 432.73 C 731.88 446.24 721.53 460.21 710.94 473.98 C 710.14 474.89 709.19 476.33 708.15 474.77 C 707.85 471.22 709.66 468.03 711.06 464.91 C 718.64 449.16 728.77 434.44 741.84 422.76 C 745.61 419.00 751.53 419.57 755.80 422.13 C 790.70 440.89 823.42 464.62 849.13 495.00 C 853.45 500.00 857.80 506.07 857.02 513.05 C 856.14 520.08 850.34 525.03 844.83 528.79 C 834.99 535.86 823.24 539.34 811.68 542.39 C 831.89 541.81 852.52 545.46 870.27 555.48 C 849.27 565.12 827.73 573.55 806.77 583.25 C 808.19 583.60 809.73 583.89 811.12 583.19 C 826.07 577.48 840.90 571.43 856.08 566.36 C 861.83 563.95 868.31 560.56 874.49 563.79 C 885.75 569.79 895.02 579.13 902.34 589.51 C 920.11 614.70 924.57 648.79 913.55 677.62 C 903.42 704.07 880.52 725.00 853.59 733.50 C 825.24 742.84 792.60 736.97 768.99 718.81 C 747.10 702.55 733.15 676.24 731.77 649.04 C 731.61 642.34 731.93 635.63 731.50 628.95 C 726.11 635.75 720.44 642.36 715.45 649.48 C 713.17 652.45 714.21 656.49 715.17 659.78 C 718.21 669.60 721.37 679.38 724.92 689.03 C 725.90 691.86 727.06 695.05 725.57 697.94 C 723.59 701.62 720.13 704.37 716.62 706.51 C 709.26 711.01 700.34 710.29 692.11 709.84 C 630.07 708.34 568.04 707.20 506.00 706.48 C 502.44 706.22 498.86 708.07 497.19 711.25 C 488.11 726.93 474.99 740.54 458.77 748.86 C 454.73 751.11 450.14 752.29 446.44 755.14 C 538.31 755.48 630.18 755.19 722.05 755.29 C 793.83 755.31 865.60 755.24 937.37 755.32 C 933.73 760.74 930.18 766.21 926.48 771.58 C 925.66 773.30 923.60 773.06 922.03 773.12 C 726.92 773.12 531.81 773.09 336.71 773.13 C 334.19 769.68 332.24 765.85 329.70 762.43 C 327.59 759.23 323.32 759.79 320.01 759.72 C 291.34 760.35 262.65 760.33 233.97 760.71 C 224.56 760.22 215.07 762.15 205.77 760.04 C 229.14 757.30 252.61 755.43 276.01 752.99 C 292.99 751.34 309.97 749.64 326.98 748.21 C 334.16 747.39 339.34 753.82 346.02 755.12 C 358.56 755.77 371.12 755.35 383.68 755.24 C 367.71 748.06 352.50 738.38 341.19 724.83 C 329.60 711.25 323.01 693.80 321.60 676.08 C 319.88 655.03 323.36 632.92 335.05 614.99 C 346.82 596.49 365.82 583.77 385.95 575.86 C 382.05 573.75 378.16 571.62 374.39 569.31 C 394.67 562.44 416.93 561.97 437.57 567.57 C 453.69 571.63 468.63 579.16 483.21 586.94 C 485.40 585.49 488.83 583.47 488.65 580.65 C 456.96 560.17 420.17 549.90 383.94 540.75 C 358.90 534.42 333.72 528.63 308.60 522.63 C 310.02 518.81 313.79 515.79 318.03 516.76 C 339.05 520.06 360.21 522.61 381.06 526.95 C 421.17 535.29 461.11 544.43 501.06 553.50 C 509.63 555.20 517.57 559.01 525.91 561.52 C 529.41 562.52 532.99 561.36 536.36 560.42 C 534.78 557.81 533.16 555.11 530.52 553.46 C 530.79 555.72 531.20 557.98 531.59 560.24 C 499.54 549.57 467.88 537.76 435.89 526.89 C 428.90 524.62 421.02 520.84 419.03 513.08 C 418.00 510.27 418.50 506.83 416.67 504.41 C 414.24 502.50 410.87 503.31 408.01 503.09 C 393.36 503.22 378.71 502.83 364.07 503.51 C 350.81 504.02 337.54 505.24 324.26 504.66 C 330.17 503.37 335.96 501.41 342.02 500.93 C 371.00 498.50 400.00 496.42 428.98 494.08 C 431.50 493.77 434.02 494.21 436.51 494.59 C 439.03 501.40 436.68 508.83 437.75 515.91 C 444.24 515.99 450.85 515.05 457.21 516.76 C 462.70 518.01 466.96 522.00 472.23 523.79 C 482.01 527.36 492.58 527.20 502.83 527.81 C 514.17 528.71 525.56 528.56 536.92 529.31 C 542.81 529.29 548.46 531.04 554.12 532.47 C 551.40 535.01 548.67 537.54 545.84 539.94 C 556.24 539.23 566.57 537.73 576.97 536.96 C 579.37 536.83 581.76 537.23 584.15 537.49 C 580.59 541.83 581.52 548.30 577.24 552.16 C 572.09 557.13 564.67 558.63 559.22 563.22 C 551.89 569.26 543.36 573.87 536.95 580.96 C 535.33 582.73 532.85 581.80 530.82 581.64 C 526.43 587.08 522.80 593.09 518.80 598.81 C 511.47 609.69 504.08 620.53 496.77 631.42 C 502.50 631.56 508.27 632.01 513.99 631.31 C 515.54 631.12 516.53 629.75 517.58 628.74 C 525.53 619.70 532.82 610.03 541.60 601.77 C 536.17 610.23 530.42 618.50 524.88 626.89 C 524.25 627.69 524.10 628.58 524.41 629.56 C 528.23 630.30 532.41 628.78 535.32 626.29 C 544.67 617.30 553.31 607.63 562.31 598.30 C 563.06 596.90 563.84 595.52 564.61 594.14 C 558.18 594.28 551.80 595.32 545.37 595.38 C 546.31 591.74 549.46 589.40 552.38 587.36 C 559.50 582.44 566.59 577.42 574.08 573.06 C 579.25 570.04 585.05 568.02 591.07 567.75 C 602.72 567.48 611.38 556.73 613.81 546.09 C 614.35 542.67 615.26 538.18 612.18 535.69 C 607.93 533.62 602.87 535.57 599.70 538.70 C 595.05 543.13 591.08 548.60 589.35 554.85 C 588.27 558.40 590.63 561.56 592.04 564.61 C 589.14 564.50 585.56 565.11 583.44 562.63 C 581.28 559.53 582.45 555.48 583.41 552.16 C 585.65 544.79 588.93 536.90 595.96 532.90 C 599.92 530.33 604.97 530.69 608.98 528.24 C 608.12 525.72 607.79 522.22 604.77 521.38 C 598.23 518.94 591.52 516.88 584.73 515.27 C 557.47 509.55 530.07 504.56 502.75 499.16 C 500.27 498.92 498.74 496.92 497.25 495.19 C 498.20 494.35 499.15 493.50 500.11 492.66 C 507.42 492.97 514.69 493.94 521.99 494.36 C 537.32 494.96 552.62 493.77 567.93 493.26 C 572.13 492.94 576.58 493.26 580.43 491.23 C 560.10 486.78 539.72 482.49 519.35 478.22 C 519.33 477.41 519.31 476.60 519.30 475.80 C 533.79 471.17 549.17 473.43 564.03 471.47 C 556.05 470.53 547.83 472.25 540.01 470.25 C 543.71 465.20 549.71 462.83 555.33 460.60 C 563.29 457.49 572.44 457.29 580.38 460.60 C 586.38 463.19 593.04 462.66 599.41 462.73 C 605.47 484.69 611.49 506.67 617.22 528.72 C 617.89 531.26 619.06 534.55 622.15 534.77 C 628.46 535.05 634.70 533.67 640.99 533.32 C 646.62 532.56 652.50 532.83 657.83 530.57 C 657.81 530.06 657.76 529.05 657.74 528.55 C 651.47 528.39 645.18 527.90 638.95 528.87 C 635.58 529.47 631.64 528.28 630.29 524.87 C 628.59 520.43 627.70 515.71 626.12 511.22 C 638.88 512.48 651.52 514.84 664.30 515.94 C 664.26 515.34 664.19 514.13 664.15 513.53 C 658.07 512.25 651.82 512.14 645.67 511.42 C 647.67 509.11 650.20 506.38 649.29 503.05 C 648.36 499.97 646.71 495.77 643.03 495.46 C 639.15 496.60 635.99 499.87 631.69 499.65 C 634.94 493.91 639.54 489.10 642.90 483.43 C 636.10 483.59 630.15 487.61 623.50 488.71 C 623.68 487.58 623.04 486.04 624.33 485.35 C 629.48 480.88 634.70 476.47 640.09 472.28 C 638.32 466.65 634.53 461.98 632.14 456.64 C 636.78 456.84 641.41 457.57 646.08 457.28 C 635.97 451.18 625.57 445.55 615.32 439.69 C 615.55 439.17 616.00 438.11 616.23 437.59 C 622.97 435.74 631.29 436.59 636.39 430.96 C 636.79 428.14 634.81 425.76 633.32 423.59 C 628.88 417.73 622.49 413.01 615.04 412.09 C 607.37 410.91 599.98 414.03 593.09 417.01 C 583.76 420.90 574.57 425.14 565.20 428.92 C 566.96 426.79 568.69 424.60 570.94 422.95 C 579.37 416.70 587.89 410.57 596.43 404.46 C 601.41 400.92 606.76 397.81 612.48 395.60 C 616.32 394.02 620.90 395.23 623.65 398.29 C 629.83 405.07 637.09 410.78 644.54 416.11 C 644.65 413.99 644.43 411.88 644.11 409.80 C 652.07 423.11 666.25 430.70 679.90 436.97 C 686.29 439.87 692.57 443.01 698.88 446.11 C 694.72 440.89 689.43 436.28 687.17 429.82 C 684.35 421.79 684.99 413.09 685.68 404.76 C 686.35 404.00 687.04 403.23 687.72 402.48 C 696.16 402.63 703.89 406.65 711.94 408.77 C 712.46 401.91 709.16 395.42 704.62 390.49 C 695.86 380.67 682.09 375.63 669.07 377.51 C 663.98 378.05 659.36 380.30 654.62 382.01 M 722.69 496.71 C 711.54 501.52 699.09 502.83 687.07 501.65 C 682.93 501.34 678.55 500.62 674.67 502.51 C 672.53 507.53 671.22 512.84 669.76 518.08 C 668.94 520.75 669.27 523.55 669.57 526.28 C 671.57 527.26 673.63 528.71 675.99 528.07 C 689.58 525.77 703.07 522.71 716.15 518.31 C 721.10 516.28 725.78 519.64 729.06 523.07 C 727.59 524.40 726.09 525.72 724.63 527.07 C 727.32 527.82 730.16 529.07 733.00 528.21 C 736.61 527.64 738.86 524.51 741.03 521.88 C 741.97 523.68 742.93 525.46 743.88 527.27 C 744.29 527.39 745.10 527.62 745.50 527.74 C 746.15 521.83 747.14 515.88 746.74 509.92 C 745.55 502.17 738.61 496.11 731.05 494.82 C 728.11 494.30 725.34 495.67 722.69 496.71 M 657.13 502.17 C 653.99 503.47 652.50 506.70 650.92 509.48 C 656.48 507.97 662.90 510.18 667.70 506.29 C 667.77 505.14 667.84 504.00 667.91 502.86 C 664.40 502.13 660.64 500.62 657.13 502.17 M 755.96 504.96 C 758.68 508.34 762.78 510.28 766.25 512.81 C 767.13 512.52 768.02 512.24 768.92 511.96 C 768.81 510.88 768.72 509.81 768.62 508.75 C 764.91 506.90 761.30 504.87 757.51 503.19 C 757.12 503.63 756.35 504.52 755.96 504.96 M 713.26 530.16 C 710.96 530.42 710.17 532.96 708.79 534.44 C 712.27 534.26 715.74 533.89 719.19 533.36 C 718.21 531.10 715.66 529.72 713.26 530.16 M 690.48 587.58 C 685.73 592.95 679.12 596.86 671.92 597.60 C 657.48 598.16 643.05 597.23 628.64 596.52 C 652.02 604.48 671.27 620.48 692.92 631.84 C 690.20 628.00 686.83 624.71 683.79 621.15 C 681.07 617.86 684.37 614.09 686.20 611.28 C 694.27 598.79 702.91 586.50 708.52 572.64 C 707.93 572.16 707.36 571.69 706.79 571.23 C 701.15 576.47 695.60 581.82 690.48 587.58 M 832.81 575.55 C 833.84 579.59 834.62 583.68 835.49 587.75 C 836.13 590.74 839.40 591.62 841.91 592.46 C 861.43 598.40 877.35 616.41 879.07 637.00 C 880.21 649.77 877.75 663.11 870.70 673.96 C 861.51 687.84 845.54 697.04 828.90 697.87 C 813.58 698.75 797.79 692.98 787.15 681.82 C 776.83 671.40 771.31 656.65 771.70 642.04 C 771.78 628.14 777.83 614.33 788.49 605.31 C 790.15 607.65 792.39 609.98 792.40 613.05 C 792.61 617.49 789.66 621.10 787.90 624.95 C 783.85 633.57 781.69 643.43 783.61 652.90 C 786.51 667.42 797.64 679.84 811.61 684.63 C 822.28 688.24 834.38 687.49 844.47 682.46 C 856.67 676.47 865.88 664.45 868.01 650.98 C 871.40 630.80 858.32 608.52 838.02 603.68 C 840.37 609.81 842.09 616.50 846.69 621.44 C 850.80 626.09 854.18 631.58 855.42 637.74 C 858.29 649.81 852.55 663.31 842.02 669.81 C 835.17 674.05 826.87 674.62 819.03 674.21 C 813.52 673.80 808.41 676.27 803.00 676.53 C 800.21 676.81 797.95 674.66 796.87 672.30 C 793.60 665.60 790.04 659.04 786.80 652.34 C 785.07 648.94 784.75 644.35 787.66 641.48 C 792.04 636.92 796.67 632.61 801.30 628.31 C 805.01 634.20 807.89 640.57 811.48 646.52 C 814.17 651.12 820.06 652.67 824.98 651.21 C 830.97 649.55 837.35 646.86 840.59 641.21 C 839.21 637.15 837.44 633.26 835.67 629.37 C 829.28 615.08 823.05 600.73 816.54 586.50 C 814.22 587.29 811.90 588.08 809.58 588.86 C 815.74 601.52 822.27 613.99 828.57 626.58 C 830.15 629.93 832.05 633.35 832.12 637.16 C 831.56 640.41 828.03 641.47 825.30 642.25 C 821.26 643.24 816.41 645.24 812.85 641.96 C 811.33 637.96 813.51 633.37 811.31 629.57 C 806.24 619.64 800.80 609.90 796.04 599.82 C 794.82 596.65 791.57 594.49 788.14 595.16 C 777.13 597.53 766.94 605.03 762.74 615.68 C 759.08 625.34 756.86 635.66 757.13 646.02 C 757.21 661.81 763.56 677.31 773.94 689.11 C 785.15 701.89 801.11 710.43 818.01 712.43 C 843.54 715.25 869.97 702.35 883.74 680.73 C 892.70 666.78 896.47 649.44 893.55 633.07 C 890.92 617.38 882.70 602.76 870.99 592.05 C 860.54 582.44 846.77 577.20 832.81 575.55 M 356.62 635.69 C 348.53 651.46 346.68 670.58 352.53 687.40 C 357.60 701.89 368.06 714.31 381.29 722.06 C 393.76 729.40 408.66 732.58 423.04 730.85 C 440.04 729.12 455.92 719.63 466.13 706.03 C 460.12 705.63 454.06 704.80 448.05 705.57 C 443.90 706.14 440.34 708.47 436.93 710.72 C 427.22 716.90 414.91 717.51 403.97 714.77 C 391.37 711.91 379.31 704.73 372.57 693.45 C 365.79 682.21 363.08 668.41 365.30 655.46 C 364.98 654.73 364.67 654.00 364.37 653.28 C 364.76 653.08 365.54 652.67 365.93 652.47 C 369.56 637.97 380.80 626.47 393.95 619.99 C 405.55 614.12 419.62 613.71 431.64 618.55 C 435.88 620.05 439.56 622.99 444.03 623.84 C 447.66 624.45 450.39 621.61 452.82 619.40 C 444.87 610.14 434.36 602.45 422.06 600.54 C 395.69 596.83 368.52 612.13 356.62 635.69 M 468.53 622.22 C 453.71 629.68 439.44 638.88 428.43 651.45 C 426.72 653.68 425.36 656.53 425.77 659.41 C 427.29 662.84 431.60 664.28 435.13 663.72 C 441.98 662.86 448.79 661.52 455.43 659.62 C 460.24 658.33 462.79 653.58 464.76 649.41 C 468.97 640.15 473.21 630.90 477.13 621.52 C 474.27 621.48 471.14 620.65 468.53 622.22 M 387.80 634.72 C 374.18 646.06 369.89 666.72 377.27 682.73 C 383.70 697.10 399.11 707.11 414.92 706.61 C 422.01 706.48 428.80 703.74 434.50 699.62 C 430.34 698.58 426.17 697.55 421.94 696.88 C 417.97 696.22 413.92 696.75 409.97 696.06 C 401.34 694.68 393.38 689.49 388.79 682.03 C 379.80 668.24 384.70 647.18 399.23 639.23 C 406.56 635.37 415.09 635.11 423.17 635.82 C 427.76 636.27 431.74 633.54 435.19 630.87 C 420.90 621.30 400.55 623.49 387.80 634.72 M 846.02 639.92 C 848.76 646.77 847.86 655.21 842.82 660.78 C 838.66 665.42 832.59 667.39 826.88 669.36 C 829.68 669.27 832.50 668.97 835.21 668.19 C 843.35 665.72 849.19 658.01 850.75 649.85 C 851.85 643.46 849.61 637.13 845.81 632.06 C 845.04 634.65 844.91 637.38 846.02 639.92 M 534.10 633.57 C 528.58 635.70 523.57 638.94 518.17 641.35 C 526.43 646.08 534.99 650.48 544.28 652.78 C 552.56 654.67 561.56 655.95 569.80 653.33 L 570.85 654.22 C 568.94 651.82 566.20 650.15 564.23 647.76 C 559.53 643.86 553.84 641.38 548.76 638.01 C 544.42 635.33 539.44 631.89 534.10 633.57 M 390.54 669.75 C 390.43 662.45 391.40 654.24 397.01 648.96 C 403.35 642.85 412.69 642.08 421.06 642.13 C 417.81 641.02 414.46 639.95 410.98 640.28 C 397.38 641.44 385.88 656.32 390.54 669.75 M 797.33 662.94 C 798.15 664.24 798.97 665.55 799.82 666.85 C 802.48 665.64 805.14 664.42 807.81 663.21 C 806.72 660.42 805.57 657.65 804.38 654.91 C 801.83 657.39 798.70 659.52 797.33 662.94 M 619.88 694.55 C 642.85 693.13 665.86 692.28 688.82 690.75 C 688.76 690.15 688.65 688.94 688.59 688.34 C 665.71 682.35 641.92 687.73 619.88 694.55 Z" />
</svg>
